<mxfile host="app.diagrams.net" agent="Mozilla/5.0 (Windows NT 10.0; Win64; x64) AppleWebKit/537.36 (KHTML, like Gecko) Chrome/132.0.0.0 Safari/537.36" version="26.0.11">
  <diagram name="페이지-1" id="fYMSg-oVBESiuWOiMr73">
    <mxGraphModel dx="1195" dy="643" grid="1" gridSize="10" guides="1" tooltips="1" connect="1" arrows="1" fold="1" page="1" pageScale="1" pageWidth="827" pageHeight="1169" math="0" shadow="0">
      <root>
        <mxCell id="0" />
        <mxCell id="1" parent="0" />
        <mxCell id="qIdjNSE2cvfyIoV1UYQl-1" value="CDN" style="image;aspect=fixed;html=1;points=[];align=center;fontSize=12;image=img/lib/azure2/app_services/CDN_Profiles.svg;" vertex="1" parent="1">
          <mxGeometry x="440" y="230.5" width="118.15" height="69.5" as="geometry" />
        </mxCell>
        <mxCell id="qIdjNSE2cvfyIoV1UYQl-2" value="클라이언트 1" style="verticalAlign=top;verticalLabelPosition=bottom;labelPosition=center;align=center;html=1;outlineConnect=0;gradientDirection=north;strokeWidth=1;shape=mxgraph.networks.pc;fillColor=#d5e8d4;strokeColor=#82b366;" vertex="1" parent="1">
          <mxGeometry x="140.01" y="130" width="100" height="70" as="geometry" />
        </mxCell>
        <mxCell id="qIdjNSE2cvfyIoV1UYQl-3" value="클라이언트 2" style="outlineConnect=0;dashed=0;verticalLabelPosition=bottom;verticalAlign=top;align=center;html=1;shape=mxgraph.aws3.mobile_client;fillColor=#f8cecc;strokeColor=#b85450;" vertex="1" parent="1">
          <mxGeometry x="169.89" y="350" width="40.25" height="63" as="geometry" />
        </mxCell>
        <mxCell id="qIdjNSE2cvfyIoV1UYQl-4" value="원본 서버" style="image;aspect=fixed;perimeter=ellipsePerimeter;html=1;align=center;shadow=0;dashed=0;spacingTop=3;image=img/lib/active_directory/generic_server.svg;" vertex="1" parent="1">
          <mxGeometry x="730" y="210.25" width="61.6" height="110" as="geometry" />
        </mxCell>
        <mxCell id="qIdjNSE2cvfyIoV1UYQl-5" value="" style="endArrow=classic;html=1;rounded=0;" edge="1" parent="1">
          <mxGeometry width="50" height="50" relative="1" as="geometry">
            <mxPoint x="250" y="370" as="sourcePoint" />
            <mxPoint x="430" y="290" as="targetPoint" />
          </mxGeometry>
        </mxCell>
        <mxCell id="qIdjNSE2cvfyIoV1UYQl-16" value="5.Image.png 조회" style="edgeLabel;html=1;align=center;verticalAlign=middle;resizable=0;points=[];rotation=-25;" vertex="1" connectable="0" parent="qIdjNSE2cvfyIoV1UYQl-5">
          <mxGeometry x="-0.0602" y="2" relative="1" as="geometry">
            <mxPoint y="-11" as="offset" />
          </mxGeometry>
        </mxCell>
        <mxCell id="qIdjNSE2cvfyIoV1UYQl-6" value="" style="endArrow=none;html=1;rounded=0;startArrow=classic;startFill=1;" edge="1" parent="1">
          <mxGeometry width="50" height="50" relative="1" as="geometry">
            <mxPoint x="260" y="390" as="sourcePoint" />
            <mxPoint x="440" y="307" as="targetPoint" />
          </mxGeometry>
        </mxCell>
        <mxCell id="qIdjNSE2cvfyIoV1UYQl-17" value="6.Image.png 반환" style="edgeLabel;html=1;align=center;verticalAlign=middle;resizable=0;points=[];rotation=-25;" vertex="1" connectable="0" parent="qIdjNSE2cvfyIoV1UYQl-6">
          <mxGeometry x="0.0761" y="1" relative="1" as="geometry">
            <mxPoint x="-6" y="17" as="offset" />
          </mxGeometry>
        </mxCell>
        <mxCell id="qIdjNSE2cvfyIoV1UYQl-8" value="" style="endArrow=none;html=1;rounded=0;startArrow=classic;startFill=1;" edge="1" parent="1">
          <mxGeometry width="50" height="50" relative="1" as="geometry">
            <mxPoint x="250" y="190" as="sourcePoint" />
            <mxPoint x="430" y="260" as="targetPoint" />
          </mxGeometry>
        </mxCell>
        <mxCell id="qIdjNSE2cvfyIoV1UYQl-15" value="4.Image.png 반환" style="edgeLabel;html=1;align=center;verticalAlign=middle;resizable=0;points=[];rotation=20;" vertex="1" connectable="0" parent="qIdjNSE2cvfyIoV1UYQl-8">
          <mxGeometry x="-0.0771" y="2" relative="1" as="geometry">
            <mxPoint x="-4" y="14" as="offset" />
          </mxGeometry>
        </mxCell>
        <mxCell id="qIdjNSE2cvfyIoV1UYQl-9" value="" style="endArrow=classic;html=1;rounded=0;" edge="1" parent="1">
          <mxGeometry width="50" height="50" relative="1" as="geometry">
            <mxPoint x="260" y="170" as="sourcePoint" />
            <mxPoint x="440" y="240" as="targetPoint" />
          </mxGeometry>
        </mxCell>
        <mxCell id="qIdjNSE2cvfyIoV1UYQl-12" value="1.Image.png 조회" style="edgeLabel;html=1;align=center;verticalAlign=middle;resizable=0;points=[];rotation=20;" vertex="1" connectable="0" parent="qIdjNSE2cvfyIoV1UYQl-9">
          <mxGeometry x="-0.0898" y="3" relative="1" as="geometry">
            <mxPoint y="-10" as="offset" />
          </mxGeometry>
        </mxCell>
        <mxCell id="qIdjNSE2cvfyIoV1UYQl-10" value="" style="endArrow=classic;html=1;rounded=0;" edge="1" parent="1">
          <mxGeometry width="50" height="50" relative="1" as="geometry">
            <mxPoint x="570" y="260" as="sourcePoint" />
            <mxPoint x="720" y="260" as="targetPoint" />
          </mxGeometry>
        </mxCell>
        <mxCell id="qIdjNSE2cvfyIoV1UYQl-13" value="2.이미지가 CDN에 없으면&lt;br&gt;원본 서버에 조회" style="edgeLabel;html=1;align=center;verticalAlign=middle;resizable=0;points=[];" vertex="1" connectable="0" parent="qIdjNSE2cvfyIoV1UYQl-10">
          <mxGeometry x="-0.1371" relative="1" as="geometry">
            <mxPoint x="5" y="-20" as="offset" />
          </mxGeometry>
        </mxCell>
        <mxCell id="qIdjNSE2cvfyIoV1UYQl-11" value="" style="endArrow=none;html=1;rounded=0;startArrow=classic;startFill=1;" edge="1" parent="1">
          <mxGeometry width="50" height="50" relative="1" as="geometry">
            <mxPoint x="570" y="280" as="sourcePoint" />
            <mxPoint x="720" y="280" as="targetPoint" />
          </mxGeometry>
        </mxCell>
        <mxCell id="qIdjNSE2cvfyIoV1UYQl-14" value="3.원본 서버의 이미지를&lt;div&gt;CDN에 저장&lt;/div&gt;" style="edgeLabel;html=1;align=center;verticalAlign=middle;resizable=0;points=[];" vertex="1" connectable="0" parent="qIdjNSE2cvfyIoV1UYQl-11">
          <mxGeometry x="-0.2133" relative="1" as="geometry">
            <mxPoint x="21" y="20" as="offset" />
          </mxGeometry>
        </mxCell>
      </root>
    </mxGraphModel>
  </diagram>
</mxfile>
